<svg width="608" height="67" xmlns="http://www.w3.org/2000/svg"><g fill="none" fill-rule="evenodd"><path d="M26.045 31.106l-1.284-9.194h-6.88v20.574c0 5.66.77 5.724 1.991 5.724h2.508v2.572H7.915V48.21h4.5V21.912h-6.88L4.25 31.106H.585v-11.77H29.71v11.77h-3.665zm31.956 19.677v-2.572h3.856V36.056H47.07v12.155h3.86v2.572H37.105v-2.572h4.503V27.633c0-5.724-.838-5.724-1.932-5.724h-2.571v-2.571H50.93v2.571h-3.86v11.96h14.787V21.91h-3.856v-2.571h13.821v2.571h-4.5v20.578c0 5.66.772 5.724 1.996 5.724h2.504v2.572h-13.82zm22.184 0v-2.572h4.5V27.633c0-5.724-.835-5.724-1.928-5.724h-2.572v-2.571h24.816v9.452h-3.534l-.644-6.88H90.151v11.96h6.042v-3.73h2.25v10.033h-2.25v-4.118H90.15V48.21h11.575l.767-7.139h3.152v9.711h-25.46z" fill="#BEC0C2"/><path d="M132.184 66.537c-3.651 0-7.978-1.96-7.978-5.883 0-2.975 2.095-4.733 5.339-5.745 2.908-.948 7.708-1.15 11.564-1.422v-6.693c-1.758 3.853-5.883 4.8-8.115 4.8-7.44 0-10.953-7.301-10.953-15.01 0-8.723 4.461-18.055 12.913-18.055 2.299 0 4.397.948 6.562 2.975l.743-2.434 4.599-.541v31.375c0 9.13-2.908 16.633-14.674 16.633zm8.925-41.517c-1.217-1.553-2.774-2.971-4.599-2.971-5.476 0-8.317 7.369-8.317 14.196 0 6.017 2.165 11.632 6.357 11.632 3.92 0 6.559-4.465 6.559-11.498V25.02zm-11.36 35.295c0 2.235 2.095 3.654 4.462 3.654 3.176 0 6.898-2.434 6.898-8.59-5.48.882-11.36.61-11.36 4.936zm57.404-10.344c-1.486.948-3.786 1.624-5.883 1.624-2.838 0-5.41-1.557-5.07-5.816l1.691-21.908-1.287.202-6.626 21.03c-1.759 5.477-4.192 6.492-7.436 6.492-5.073 0-7.033-2.501-6.76-8.182l.675-15.35c.269-6.152-1.082-6.017-2.367-6.017h-2.437V19.07l10.55-.54v5.072l-.61 17.377-.268 6.084c.81.542 1.553 1.016 2.77 1.016 2.03 0 2.706-1.826 3.99-6.018l7.234-22.99 7.776-.542-.877 21.367c0 .609-.273 5.749-.273 6.424 0 1.15.071 2.098 1.826 2.098.34 0 .612-.07.612-.07l1.892-5.41h3.379l-2.501 7.033zm15.145-27.924v21.501c0 3.786.135 4.868 1.759 4.868.336 0 .54-.067.54-.067l1.893-5.41h3.382l-2.5 7.034c-1.49.944-3.722 1.623-5.817 1.623-2.84 0-5.005-1.489-5.005-5.815V22.047h-6.22v-2.975l6.22-.541 1.015-9.332h4.733v9.873h8.724v2.975h-8.724zM247.6 49.971c-1.487.948-3.719 1.624-5.817 1.624-2.837 0-5.207-1.557-5.069-5.816l.877-22.45c-.81-.54-1.351-1.283-2.568-1.283-2.027 0-2.773 1.758-4.125 5.95l-7.234 22.785h-7.843l1.012-23.121V9.67c0-5.947-.878-5.947-2.162-5.947h-2.639V.68l10.55-.47v26.096l-1.557 19.948 1.288-.205L228.8 25.36c1.691-5.476 4.6-6.83 7.574-6.83 5.073 0 6.899 3.109 6.693 8.588l-.537 16.362c0 .608-.138 2.165-.138 2.84 0 1.15.205 2.098 1.963 2.098.336 0 .47-.07.47-.07l1.897-5.41h3.378l-2.5 7.033zm24.407-24.882c-1.083 0-1.624-.134-2.501-.336-.541.608-1.015 1.822-1.419 3.177l-6.562 22.852h-7.57l1.011-22.785c.273-5.95-1.011-5.95-2.295-5.95h-2.505v-2.975l10.549-.542v7.776l-1.553 19.948 1.284-.205 5.41-20.083c1.552-5.745 4.258-7.57 9.26-8.451 1.557 1.49 2.233 2.568 2.233 3.722 0 2.975-3.244 3.852-5.342 3.852m25.423 24.882c-1.485.948-3.852 1.624-5.95 1.624-2.84 0-5.207-1.825-5.207-4.8 0-1.15.205-5.342.205-6.56v-12.44c0-5.682-.948-5.75-2.232-5.75h-3.042V19.07l11.02-.54v27.79c0 1.15.271 2.098 1.892 2.098.34 0 .54-.07.54-.07l1.897-5.41h3.378l-2.5 7.033zm-8.45-38.404c-2.166 0-3.991-1.758-3.991-3.923s1.825-3.92 3.99-3.92a3.922 3.922 0 0 1 0 7.843zm27.99 40.028c-9.127 0-13.994-7.235-13.994-16.16 0-8.384 4.326-16.906 13.994-16.906 6.085 0 9.534 3.923 9.534 8.25 0 5.546-5.204 11.765-17.175 11.765.608 6.223 4.464 9.534 8.79 9.534 2.233 0 5.003-.948 7.575-2.77l1.486 1.688c-2.569 2.975-6.76 4.599-10.21 4.599m.135-30.427c-5.275 0-8.384 7.843-7.978 15.077 5.883 0 11.766-2.908 11.766-9.668 0-2.098-1.15-5.41-3.788-5.41" fill="#1A1919"/><path d="M353.08 36.057h-2.767v6.431c0 5.66.775 5.724 1.995 5.724h2.509v2.572H340.35v-2.572h4.5V27.634c0-5.724-.835-5.724-1.928-5.724h-2.572v-2.572h12.923c8.356 0 11.122 3.729 11.122 7.843 0 4.503-3.601 8.876-11.316 8.876m.258-14.147h-3.025v11.96h2.512c4.241 0 6.428-3.537 6.428-6.43 0-3.022-1.801-5.53-5.915-5.53m34.27 28.873v-2.572h3.343l-2.25-5.529h-12.796l-2.186 5.53h3.474v2.571h-10.224v-2.572h3.407l11.702-28.873h2.703l11.055 27.264c.58 1.415 1.928 1.61 2.572 1.61h1.479v2.571h-12.28zm-5.271-23.857l-5.402 13.312h10.736l-5.334-13.312zm44.813 23.857c-2.123-3.601-6.622-11.384-9.644-14.727h-2.122v6.431c0 5.66.771 5.724 1.995 5.724h2.508v2.572h-14.465v-2.572h4.5V27.633c0-5.724-.838-5.724-1.932-5.724h-2.568v-2.571h12.92c8.359 0 11.121 3.728 11.121 7.846 0 3.534-2.44 6.944-6.686 8.296 2.636 2.635 5.915 8.422 7.589 11.189.385.644 1.093 1.542 1.864 1.542h2.25v2.572h-7.33zm-8.741-28.874h-3.025v11.96h2.508c4.245 0 6.428-3.537 6.428-6.43 0-3.021-1.797-5.53-5.911-5.53zm45.842 9.197l-1.285-9.194h-6.88v20.574c0 5.66.77 5.724 1.991 5.724h2.508v2.572H446.12V48.21h4.5V21.912h-6.877l-1.288 9.194h-3.665v-11.77h29.125v11.77h-3.665zm41.213-9.196v28.874h-2.186l-20.575-23.858v21.286h4.504v2.572h-12.22v-2.572h4.504V27.634c0-5.724-.838-5.724-1.931-5.724h-2.572v-2.572h8.554l18.706 21.671V21.91h-4.5v-2.572h12.216v2.572h-4.5zm11.577 28.873v-2.572h4.5V27.633c0-5.724-.835-5.724-1.931-5.724h-2.569v-2.571h24.816v9.452h-3.537l-.644-6.88h-10.67v11.96h6.043v-3.73h2.25v10.033h-2.25v-4.118h-6.042V48.21h11.571l.771-7.139h3.152v9.711h-25.46zm55.743 0c-2.122-3.601-6.622-11.384-9.643-14.727h-2.123v6.431c0 5.66.772 5.724 1.992 5.724h2.512v2.572h-14.469v-2.572h4.5V27.633c0-5.724-.835-5.724-1.928-5.724h-2.572v-2.571h12.923c8.36 0 11.122 3.728 11.122 7.846 0 3.534-2.445 6.944-6.686 8.296 2.635 2.635 5.915 8.422 7.588 11.189.386.644 1.093 1.542 1.864 1.542h2.25v2.572h-7.33zm-8.745-28.874h-3.02v11.96h2.507c4.242 0 6.428-3.537 6.428-6.43 0-3.021-1.8-5.53-5.915-5.53zm32.988 29.646c-2.83 0-5.66-.838-7.783-2.445l-.19 2.445h-2.7V41.331h2.441l1.16 4.31c1.412 1.733 4.178 2.893 6.686 2.893 2.89 0 5.53-1.482 5.53-5.47 0-2.698-1.996-4.435-5.339-6.236-4.177-2.25-9-4.5-9-10.804 0-3.856 3.216-7.457 8.937-7.457 2.444 0 4.821.771 6.364 2.055l.389-2.055h2.377v9.516h-2.508c-1.351-3.86-2.059-7.075-6.3-7.075-2.378 0-4.245 1.8-4.245 4.44 0 3.537 4.245 5.529 6.88 6.944 3.923 2.122 7.907 4.63 7.907 10.16 0 6.11-5.271 9.003-10.606 9.003" fill="#BEC0C2"/></g></svg>